<svg xmlns="http://www.w3.org/2000/svg" xmlns:xlink="http://www.w3.org/1999/xlink" version="1.1" x="0px" y="0px" viewBox="0 0 100 100" enable-background="new 0 0 100 100" xml:space="preserve"><path fill="FFFFFF" d="M79.934,75.83c-0.158-0.98-0.787-1.961-1.19-3.447c-0.402-1.488-1.698-4.393-2.485-5.514c-0.788-1.12-4.551-3.57-4.551-3.57  s-0.174-0.595-0.174-0.893s-0.263-0.945-0.263-0.945s0.245-0.42,0.332-0.944c0.088-0.525,0.104-2.363,0.104-2.871  c0-0.507-0.123-1.89-0.366-2.747c-0.245-0.857-1.104-3.535-1.488-4.393c-0.385-0.858-1.05-3.15-1.609-4.445  c-0.561-1.295-2.101-4.568-2.469-5.443c-0.367-0.875-2.607-6.143-3.062-7.158c-0.455-1.015-1.103-1.889-1.767-1.942  c-0.666-0.052-1.174-0.157-1.646-0.315c-0.472-0.157-0.365-0.612-0.717-1.084c-0.35-0.473-0.656-0.49-0.971-0.735  c-0.314-0.245-0.805-0.857-1.137-0.98c-0.334-0.123-0.444-0.333-0.537-0.674c-0.074-0.272-0.074-0.395,0.206-0.727  c0.279-0.333,1.273-0.398,1.711-2.023c0.175-0.649,0.116-1.192,0.125-1.5c0.22-0.312,0.374-0.483,0.375-1.104  c0.001-0.694-0.245-0.916-0.245-0.916c0.192-0.018,2.083-0.458,2.083-0.984c0-0.525-2.267-1.121-3.278-1.05  c-0.295-1.12,0.447-2.377-3.166-2.488c-1.355-0.042-2.461,0.133-3.408,0.614c-0.15-0.334-0.486-0.566-0.876-0.566  c-0.532,0-0.963,0.431-0.963,0.963c0,0.315,0.152,0.594,0.386,0.77c-0.521,0.863-0.41,1.873-0.41,1.873  c-0.07,0.034-1.663,0.551-2.276,0.884c-0.613,0.332-0.507,0.927,0.106,1.067c0.424,0.097,1.838,0.118,2.48,0.122  c-0.018,0.231-0.027,0.466-0.027,0.705c0,2.544,1.053,4.706,2.338,5.499c0.068,0.074,0.109,0.115,0.109,0.115l-0.438,0.332  c0,0-0.99,0.857-1.34,1.838c-0.35,0.98-1.785,1.364-2.223,1.487c-0.437,0.123-1.89,0.123-2.362,0.577  c-0.473,0.455-1.172,1.505-1.925,1.995c-0.752,0.49-3.465,2.958-4.288,3.605c-0.822,0.647-1.033-0.07-1.085-0.473  c-0.052-0.402-0.298-2.257-0.298-2.257s1.243,0.104,1.698-0.246c0.455-0.35,0.508-0.734,0.508-1.172c0-0.438,0.07-0.962,0.07-1.435  c0-0.472-0.053-1.172-0.035-1.347c0.017-0.175,0.28-0.613,0.192-0.945c-0.088-0.333-0.596-0.315-0.84-0.333  c-0.245-0.018-0.263-0.175-0.263-0.175s0.315-17.781,0.385-17.799c0.07-0.017,0.49,0.123,1.26,0.508  c0.455-0.368,1.75-0.927,3.045-0.945c1.295-0.017,2.467,0.402,3.447,1.015c0.455-0.472,2.311-1.417,3.886-1.417  s2.923,0.928,3.78,1.417c0.42-0.419,1.344-0.602,2.052-0.564c0.243,0.014,0.818,0.04,1.833,0.669  c-1.225-2.31-3.885-5.303-7.998-7.438c-4.112-2.135-10.944-2.649-10.944-2.649l-0.096-1.796h-0.392c0,0-0.163,1.205-0.198,1.905  c-4.427,0.017-7.882,1.105-10.647,2.575c-2.766,1.47-5.461,5.022-6.633,6.422c0.507-0.385,1.715-0.752,2.293-0.665  c0.577,0.087,1.155,0.56,1.575,1.085c0.245-0.14,1.925-0.805,3.115-0.823c1.19-0.018,2.24,0.49,3.237,1.33  c0.561-0.333,3.063-1.575,4.393-1.593c1.33-0.017,2.257,0.771,2.257,0.771l-0.63,17.64c0,0,0,0-0.752,0.14s-0.752,0.98-0.752,0.98  s-0.718,0.665-0.788,1.575c-0.157,1.75-0.245,1.732-0.419,2.101c-0.175,0.367-0.805,0.735-0.893,1.278  c-0.087,0.542-0.07,2.135,0.367,5.478c0.438,3.342,2.502,3.465,2.835,3.43c0.332-0.034,0.717-0.192,3.062-1.89  s5.915-3.36,6.353-3.553c0.245,0.192,0.77,1.593,1.085,2.625c0.314,1.033,0.612,3.885,0.577,3.938  c-0.035,0.052-2.238,3.013-2.993,5.547c-0.188,0.632-0.91,4.008-0.998,4.533c-0.087,0.524-0.875,3.815-1.033,4.777  c-0.157,0.963-1.364,6.214-1.417,6.756c-0.052,0.543-0.945,4.48-1.312,5.723c-0.367,1.243-1.015,4.149-0.771,4.341  c0.246,0.192,2.17,1.137,2.17,1.137s-0.35,2.014-0.49,3.239c-0.14,1.225-0.35,3.536-0.35,3.536s3.623,0.734,4.743,1.224  c1.12,0.491,2.501,0.752,3.027,0.806c0.525,0.052,0.596,0.456,0.596,0.456l0.035,1.784c0,0-0.596,0.804-0.875,1.067  c-0.281,0.264-0.543,1.208-2.1,1.068c-1.558-0.141-1.698,1.048-1.698,1.048s0.298,0.544,0.998,1.14  c0.7,0.593,1.802,0.805,2.31,0.716c0.508-0.086,1.436-0.873,1.436-0.873l-0.105,0.716c0,0,0,0,0.192,0.28s0.91,0.315,0.91,0.315  s0.263-0.438,0.63-0.736c0.367-0.295,0.98-0.839,1.452-1.4c-0.034,0.353,0.421,0.544,0.945,0.928  c0.525,0.387,0.928,1.051,1.226,1.664c0.438-0.069,0.997-0.421,0.997-0.421s-0.157-1.277,0.122-1.383  c0.28-0.104,0.543,0.071,1.068,0.492c0.524,0.418,1.207,0.856,2.047,0.682s2.521-1.068,2.835-1.575  c-0.034-0.455-0.438-1.226-0.997-1.277c-0.56-0.054-1.225,0.298-1.75,0.175s-1.154-0.771-1.872-1.331  c-0.718-0.559-0.561-1.75-0.561-2.485c0.806,0.054,3.622-0.227,4.41-0.332c0.787-0.106,4.497-0.805,4.497-0.856  c0-0.055-0.104-1.226-0.367-2.136c-0.263-0.911-0.595-3.027-0.718-3.815c1.4,0.367,4.655,0.315,7.158,0s7.087-1.602,7.853-2.078  C80.718,78.887,80.092,76.81,79.934,75.83z"></path></svg>